<svg xmlns="http://www.w3.org/2000/svg" version="1.1" xmlns:xlink="http://www.w3.org/1999/xlink" xmlns:svgjs="http://svgjs.dev/svgjs" width="1440" height="560" preserveAspectRatio="none" viewBox="0 0 1440 560"><g mask="url(&quot;#SvgjsMask1020&quot;)" fill="none"><rect width="1440" height="560" x="0" y="0" fill="#0e2a47"></rect><path d="M872.900622333871 176.81947893345932L773.2887827015226 304.3168195382425 900.7861233063059 403.9286591705909 1000.3979629386541 276.43131856580766z" fill="rgba(28, 83, 142, 0.4)" class="triangle-float2"></path><path d="M588.1750153287055 575.7670250321986L669.8357469426537 491.3659803767641 570.6733173226739 464.7954874405825z" fill="rgba(28, 83, 142, 0.4)" class="triangle-float3"></path><path d="M1169.568,292.74C1189.681,293.116,1210.27,285.005,1219.795,267.286C1228.941,250.272,1221.635,230.53,1212.012,213.782C1202.342,196.953,1188.967,180.489,1169.568,179.871C1149.333,179.226,1131.918,193.178,1122.162,210.917C1112.77,227.994,1112.719,248.605,1122.489,265.468C1132.233,282.287,1150.133,292.377,1169.568,292.74" fill="rgba(28, 83, 142, 0.4)" class="triangle-float1"></path><path d="M952.395,443.408C973.94,443.745,987.96,423.363,998.575,404.611C1008.977,386.234,1018.02,364.444,1007.434,346.172C996.866,327.931,973.461,324.102,952.395,324.905C932.97,325.646,913.655,333.139,904.174,350.109C894.889,366.728,899.906,386.295,908.647,403.207C918.393,422.064,931.171,443.076,952.395,443.408" fill="rgba(28, 83, 142, 0.4)" class="triangle-float1"></path><path d="M500.286,201.475C525.555,201.71,549.084,190.155,563.233,169.217C579.492,145.156,589.455,114.878,576.298,88.989C562.111,61.074,531.597,44.993,500.286,45.355C469.574,45.71,440.919,63.203,427.255,90.71C414.811,115.762,423.933,144.714,439.33,168.067C453,188.8,475.453,201.245,500.286,201.475" fill="rgba(28, 83, 142, 0.4)" class="triangle-float2"></path><path d="M753.682,484.347C780.25,483.801,810.593,484.037,824.416,461.341C838.582,438.082,827.126,409.546,813.657,385.876C799.991,361.86,781.303,337.832,753.682,337.039C725.037,336.216,702.108,357.64,687.426,382.25C672.292,407.617,661.645,439.579,677.725,464.357C693.001,487.896,725.627,484.924,753.682,484.347" fill="rgba(28, 83, 142, 0.4)" class="triangle-float1"></path><path d="M285.40381274675275 131.5497000080602L402.8324409126469 141.82337374597694 413.10611465056365 24.394745580082727 295.6774864846695 14.121071842166003z" fill="rgba(28, 83, 142, 0.4)" class="triangle-float1"></path></g><defs><mask id="SvgjsMask1020"><rect width="1440" height="560" fill="#ffffff"></rect></mask><style>
                @keyframes float1 {
                    0%{transform: translate(0, 0)}
                    50%{transform: translate(-10px, 0)}
                    100%{transform: translate(0, 0)}
                }

                .triangle-float1 {
                    animation: float1 5s infinite;
                }

                @keyframes float2 {
                    0%{transform: translate(0, 0)}
                    50%{transform: translate(-5px, -5px)}
                    100%{transform: translate(0, 0)}
                }

                .triangle-float2 {
                    animation: float2 4s infinite;
                }

                @keyframes float3 {
                    0%{transform: translate(0, 0)}
                    50%{transform: translate(0, -10px)}
                    100%{transform: translate(0, 0)}
                }

                .triangle-float3 {
                    animation: float3 6s infinite;
                }
            </style></defs></svg>